<?xml version="1.0" encoding="utf-8" standalone="no"?>
<!DOCTYPE svg PUBLIC "-//W3C//DTD SVG 1.1//EN"
  "http://www.w3.org/Graphics/SVG/1.1/DTD/svg11.dtd">
<!-- Created with matplotlib (https://matplotlib.org/) -->
<svg height="231.84pt" version="1.1" viewBox="0 0 349.2 231.84" width="349.2pt" xmlns="http://www.w3.org/2000/svg" xmlns:xlink="http://www.w3.org/1999/xlink">
 <defs>
  <style type="text/css">
*{stroke-linecap:butt;stroke-linejoin:round;}
  </style>
 </defs>
 <g id="figure_1">
  <g id="patch_1">
   <path d="M 0 231.84 
L 349.2 231.84 
L 349.2 0 
L 0 0 
z
" style="fill:#ffffff;"/>
  </g>
  <g id="axes_1">
   <g id="patch_2">
    <path clip-path="url(#p7562d511da)" d="M 29.52 207.913846 
L 74.16 207.913846 
L 74.16 174.461538 
L 29.52 174.461538 
z
" style="fill:#ffffff;stroke:#ffffff;stroke-linejoin:miter;stroke-width:2;"/>
   </g>
   <g id="patch_3">
    <path clip-path="url(#p7562d511da)" d="M 29.52 207.913846 
L 74.16 207.913846 
L 74.16 174.461538 
L 29.52 174.461538 
z
" style="fill:none;stroke:#000000;stroke-linejoin:miter;stroke-width:2;"/>
   </g>
   <g id="patch_4">
    <path clip-path="url(#p7562d511da)" d="M 74.16 207.913846 
L 118.8 207.913846 
L 118.8 174.461538 
L 74.16 174.461538 
z
" style="fill:#ffffff;stroke:#ffffff;stroke-linejoin:miter;stroke-width:2;"/>
   </g>
   <g id="patch_5">
    <path clip-path="url(#p7562d511da)" d="M 74.16 207.913846 
L 118.8 207.913846 
L 118.8 174.461538 
L 74.16 174.461538 
z
" style="fill:none;stroke:#000000;stroke-linejoin:miter;stroke-width:2;"/>
   </g>
   <g id="patch_6">
    <path clip-path="url(#p7562d511da)" d="M 118.8 207.913846 
L 163.44 207.913846 
L 163.44 174.461538 
L 118.8 174.461538 
z
" style="fill:#ffffff;stroke:#ffffff;stroke-linejoin:miter;stroke-width:2;"/>
   </g>
   <g id="patch_7">
    <path clip-path="url(#p7562d511da)" d="M 118.8 207.913846 
L 163.44 207.913846 
L 163.44 174.461538 
L 118.8 174.461538 
z
" style="fill:none;stroke:#000000;stroke-linejoin:miter;stroke-width:2;"/>
   </g>
   <g id="patch_8">
    <path clip-path="url(#p7562d511da)" d="M 163.44 207.913846 
L 208.08 207.913846 
L 208.08 174.461538 
L 163.44 174.461538 
z
" style="fill:#ffffff;stroke:#ffffff;stroke-linejoin:miter;stroke-width:2;"/>
   </g>
   <g id="patch_9">
    <path clip-path="url(#p7562d511da)" d="M 163.44 207.913846 
L 208.08 207.913846 
L 208.08 174.461538 
L 163.44 174.461538 
z
" style="fill:none;stroke:#000000;stroke-linejoin:miter;stroke-width:2;"/>
   </g>
   <g id="patch_10">
    <path clip-path="url(#p7562d511da)" d="M 208.08 207.913846 
L 252.72 207.913846 
L 252.72 174.461538 
L 208.08 174.461538 
z
" style="fill:#ffffff;stroke:#ffffff;stroke-linejoin:miter;stroke-width:2;"/>
   </g>
   <g id="patch_11">
    <path clip-path="url(#p7562d511da)" d="M 208.08 207.913846 
L 252.72 207.913846 
L 252.72 174.461538 
L 208.08 174.461538 
z
" style="fill:none;stroke:#000000;stroke-linejoin:miter;stroke-width:2;"/>
   </g>
   <g id="patch_12">
    <path clip-path="url(#p7562d511da)" d="M 252.72 207.913846 
L 297.36 207.913846 
L 297.36 174.461538 
L 252.72 174.461538 
z
" style="fill:#ffffff;stroke:#ffffff;stroke-linejoin:miter;stroke-width:2;"/>
   </g>
   <g id="patch_13">
    <path clip-path="url(#p7562d511da)" d="M 252.72 207.913846 
L 297.36 207.913846 
L 297.36 174.461538 
L 252.72 174.461538 
z
" style="fill:none;stroke:#000000;stroke-linejoin:miter;stroke-width:2;"/>
   </g>
   <g id="patch_14">
    <path clip-path="url(#p7562d511da)" d="M 29.52 174.461538 
L 74.16 174.461538 
L 74.16 141.009231 
L 29.52 141.009231 
z
" style="fill:#ffffff;stroke:#ffffff;stroke-linejoin:miter;stroke-width:2;"/>
   </g>
   <g id="patch_15">
    <path clip-path="url(#p7562d511da)" d="M 29.52 174.461538 
L 74.16 174.461538 
L 74.16 141.009231 
L 29.52 141.009231 
z
" style="fill:none;stroke:#000000;stroke-linejoin:miter;stroke-width:2;"/>
   </g>
   <g id="patch_16">
    <path clip-path="url(#p7562d511da)" d="M 74.16 174.461538 
L 118.8 174.461538 
L 118.8 141.009231 
L 74.16 141.009231 
z
" style="fill:#ffffff;stroke:#ffffff;stroke-linejoin:miter;stroke-width:2;"/>
   </g>
   <g id="patch_17">
    <path clip-path="url(#p7562d511da)" d="M 74.16 174.461538 
L 118.8 174.461538 
L 118.8 141.009231 
L 74.16 141.009231 
z
" style="fill:none;stroke:#000000;stroke-linejoin:miter;stroke-width:2;"/>
   </g>
   <g id="patch_18">
    <path clip-path="url(#p7562d511da)" d="M 118.8 174.461538 
L 163.44 174.461538 
L 163.44 141.009231 
L 118.8 141.009231 
z
" style="fill:#ffffff;stroke:#ffffff;stroke-linejoin:miter;stroke-width:2;"/>
   </g>
   <g id="patch_19">
    <path clip-path="url(#p7562d511da)" d="M 118.8 174.461538 
L 163.44 174.461538 
L 163.44 141.009231 
L 118.8 141.009231 
z
" style="fill:none;stroke:#000000;stroke-linejoin:miter;stroke-width:2;"/>
   </g>
   <g id="patch_20">
    <path clip-path="url(#p7562d511da)" d="M 163.44 174.461538 
L 208.08 174.461538 
L 208.08 141.009231 
L 163.44 141.009231 
z
" style="fill:#ffffff;stroke:#ffffff;stroke-linejoin:miter;stroke-width:2;"/>
   </g>
   <g id="patch_21">
    <path clip-path="url(#p7562d511da)" d="M 163.44 174.461538 
L 208.08 174.461538 
L 208.08 141.009231 
L 163.44 141.009231 
z
" style="fill:none;stroke:#000000;stroke-linejoin:miter;stroke-width:2;"/>
   </g>
   <g id="patch_22">
    <path clip-path="url(#p7562d511da)" d="M 208.08 174.461538 
L 252.72 174.461538 
L 252.72 141.009231 
L 208.08 141.009231 
z
" style="fill:#ffffff;stroke:#ffffff;stroke-linejoin:miter;stroke-width:2;"/>
   </g>
   <g id="patch_23">
    <path clip-path="url(#p7562d511da)" d="M 208.08 174.461538 
L 252.72 174.461538 
L 252.72 141.009231 
L 208.08 141.009231 
z
" style="fill:none;stroke:#000000;stroke-linejoin:miter;stroke-width:2;"/>
   </g>
   <g id="patch_24">
    <path clip-path="url(#p7562d511da)" d="M 252.72 174.461538 
L 297.36 174.461538 
L 297.36 141.009231 
L 252.72 141.009231 
z
" style="fill:#ffffff;stroke:#ffffff;stroke-linejoin:miter;stroke-width:2;"/>
   </g>
   <g id="patch_25">
    <path clip-path="url(#p7562d511da)" d="M 252.72 174.461538 
L 297.36 174.461538 
L 297.36 141.009231 
L 252.72 141.009231 
z
" style="fill:none;stroke:#000000;stroke-linejoin:miter;stroke-width:2;"/>
   </g>
   <g id="patch_26">
    <path clip-path="url(#p7562d511da)" d="M 29.52 141.009231 
L 74.16 141.009231 
L 74.16 107.556923 
L 29.52 107.556923 
z
" style="fill:#ffffff;stroke:#ffffff;stroke-linejoin:miter;stroke-width:2;"/>
   </g>
   <g id="patch_27">
    <path clip-path="url(#p7562d511da)" d="M 29.52 141.009231 
L 74.16 141.009231 
L 74.16 107.556923 
L 29.52 107.556923 
z
" style="fill:none;stroke:#000000;stroke-linejoin:miter;stroke-width:2;"/>
   </g>
   <g id="patch_28">
    <path clip-path="url(#p7562d511da)" d="M 74.16 141.009231 
L 118.8 141.009231 
L 118.8 107.556923 
L 74.16 107.556923 
z
" style="fill:#ffffff;stroke:#ffffff;stroke-linejoin:miter;stroke-width:2;"/>
   </g>
   <g id="patch_29">
    <path clip-path="url(#p7562d511da)" d="M 74.16 141.009231 
L 118.8 141.009231 
L 118.8 107.556923 
L 74.16 107.556923 
z
" style="fill:none;stroke:#000000;stroke-linejoin:miter;stroke-width:2;"/>
   </g>
   <g id="patch_30">
    <path clip-path="url(#p7562d511da)" d="M 118.8 141.009231 
L 163.44 141.009231 
L 163.44 107.556923 
L 118.8 107.556923 
z
" style="fill:#ffffff;stroke:#ffffff;stroke-linejoin:miter;stroke-width:2;"/>
   </g>
   <g id="patch_31">
    <path clip-path="url(#p7562d511da)" d="M 118.8 141.009231 
L 163.44 141.009231 
L 163.44 107.556923 
L 118.8 107.556923 
z
" style="fill:none;stroke:#000000;stroke-linejoin:miter;stroke-width:2;"/>
   </g>
   <g id="patch_32">
    <path clip-path="url(#p7562d511da)" d="M 163.44 141.009231 
L 208.08 141.009231 
L 208.08 107.556923 
L 163.44 107.556923 
z
" style="fill:#ffffff;stroke:#ffffff;stroke-linejoin:miter;stroke-width:2;"/>
   </g>
   <g id="patch_33">
    <path clip-path="url(#p7562d511da)" d="M 163.44 141.009231 
L 208.08 141.009231 
L 208.08 107.556923 
L 163.44 107.556923 
z
" style="fill:none;stroke:#000000;stroke-linejoin:miter;stroke-width:2;"/>
   </g>
   <g id="patch_34">
    <path clip-path="url(#p7562d511da)" d="M 208.08 141.009231 
L 252.72 141.009231 
L 252.72 107.556923 
L 208.08 107.556923 
z
" style="fill:#ffffff;stroke:#ffffff;stroke-linejoin:miter;stroke-width:2;"/>
   </g>
   <g id="patch_35">
    <path clip-path="url(#p7562d511da)" d="M 208.08 141.009231 
L 252.72 141.009231 
L 252.72 107.556923 
L 208.08 107.556923 
z
" style="fill:none;stroke:#000000;stroke-linejoin:miter;stroke-width:2;"/>
   </g>
   <g id="patch_36">
    <path clip-path="url(#p7562d511da)" d="M 252.72 141.009231 
L 297.36 141.009231 
L 297.36 107.556923 
L 252.72 107.556923 
z
" style="fill:#ffffff;stroke:#ffffff;stroke-linejoin:miter;stroke-width:2;"/>
   </g>
   <g id="patch_37">
    <path clip-path="url(#p7562d511da)" d="M 252.72 141.009231 
L 297.36 141.009231 
L 297.36 107.556923 
L 252.72 107.556923 
z
" style="fill:none;stroke:#000000;stroke-linejoin:miter;stroke-width:2;"/>
   </g>
   <g id="patch_38">
    <path clip-path="url(#p7562d511da)" d="M 29.52 107.556923 
L 74.16 107.556923 
L 74.16 74.104615 
L 29.52 74.104615 
z
" style="fill:#ffffff;stroke:#ffffff;stroke-linejoin:miter;stroke-width:2;"/>
   </g>
   <g id="patch_39">
    <path clip-path="url(#p7562d511da)" d="M 29.52 107.556923 
L 74.16 107.556923 
L 74.16 74.104615 
L 29.52 74.104615 
z
" style="fill:none;stroke:#000000;stroke-linejoin:miter;stroke-width:2;"/>
   </g>
   <g id="patch_40">
    <path clip-path="url(#p7562d511da)" d="M 74.16 107.556923 
L 118.8 107.556923 
L 118.8 74.104615 
L 74.16 74.104615 
z
" style="fill:#ffffff;stroke:#ffffff;stroke-linejoin:miter;stroke-width:2;"/>
   </g>
   <g id="patch_41">
    <path clip-path="url(#p7562d511da)" d="M 74.16 107.556923 
L 118.8 107.556923 
L 118.8 74.104615 
L 74.16 74.104615 
z
" style="fill:none;stroke:#000000;stroke-linejoin:miter;stroke-width:2;"/>
   </g>
   <g id="patch_42">
    <path clip-path="url(#p7562d511da)" d="M 118.8 107.556923 
L 163.44 107.556923 
L 163.44 74.104615 
L 118.8 74.104615 
z
" style="fill:#ffffff;stroke:#ffffff;stroke-linejoin:miter;stroke-width:2;"/>
   </g>
   <g id="patch_43">
    <path clip-path="url(#p7562d511da)" d="M 118.8 107.556923 
L 163.44 107.556923 
L 163.44 74.104615 
L 118.8 74.104615 
z
" style="fill:none;stroke:#000000;stroke-linejoin:miter;stroke-width:2;"/>
   </g>
   <g id="patch_44">
    <path clip-path="url(#p7562d511da)" d="M 163.44 107.556923 
L 208.08 107.556923 
L 208.08 74.104615 
L 163.44 74.104615 
z
" style="fill:#ffffff;stroke:#ffffff;stroke-linejoin:miter;stroke-width:2;"/>
   </g>
   <g id="patch_45">
    <path clip-path="url(#p7562d511da)" d="M 163.44 107.556923 
L 208.08 107.556923 
L 208.08 74.104615 
L 163.44 74.104615 
z
" style="fill:none;stroke:#000000;stroke-linejoin:miter;stroke-width:2;"/>
   </g>
   <g id="patch_46">
    <path clip-path="url(#p7562d511da)" d="M 208.08 107.556923 
L 252.72 107.556923 
L 252.72 74.104615 
L 208.08 74.104615 
z
" style="fill:#ffffff;stroke:#ffffff;stroke-linejoin:miter;stroke-width:2;"/>
   </g>
   <g id="patch_47">
    <path clip-path="url(#p7562d511da)" d="M 208.08 107.556923 
L 252.72 107.556923 
L 252.72 74.104615 
L 208.08 74.104615 
z
" style="fill:none;stroke:#000000;stroke-linejoin:miter;stroke-width:2;"/>
   </g>
   <g id="patch_48">
    <path clip-path="url(#p7562d511da)" d="M 252.72 107.556923 
L 297.36 107.556923 
L 297.36 74.104615 
L 252.72 74.104615 
z
" style="fill:#ffffff;stroke:#ffffff;stroke-linejoin:miter;stroke-width:2;"/>
   </g>
   <g id="patch_49">
    <path clip-path="url(#p7562d511da)" d="M 252.72 107.556923 
L 297.36 107.556923 
L 297.36 74.104615 
L 252.72 74.104615 
z
" style="fill:none;stroke:#000000;stroke-linejoin:miter;stroke-width:2;"/>
   </g>
   <g id="patch_50">
    <path clip-path="url(#p7562d511da)" d="M 29.52 74.104615 
L 74.16 74.104615 
L 74.16 40.652308 
L 29.52 40.652308 
z
" style="fill:#ffffff;stroke:#ffffff;stroke-linejoin:miter;stroke-width:2;"/>
   </g>
   <g id="patch_51">
    <path clip-path="url(#p7562d511da)" d="M 29.52 74.104615 
L 74.16 74.104615 
L 74.16 40.652308 
L 29.52 40.652308 
z
" style="fill:none;stroke:#000000;stroke-linejoin:miter;stroke-width:2;"/>
   </g>
   <g id="patch_52">
    <path clip-path="url(#p7562d511da)" d="M 74.16 74.104615 
L 118.8 74.104615 
L 118.8 40.652308 
L 74.16 40.652308 
z
" style="fill:#ffffff;stroke:#ffffff;stroke-linejoin:miter;stroke-width:2;"/>
   </g>
   <g id="patch_53">
    <path clip-path="url(#p7562d511da)" d="M 74.16 74.104615 
L 118.8 74.104615 
L 118.8 40.652308 
L 74.16 40.652308 
z
" style="fill:none;stroke:#000000;stroke-linejoin:miter;stroke-width:2;"/>
   </g>
   <g id="patch_54">
    <path clip-path="url(#p7562d511da)" d="M 118.8 74.104615 
L 163.44 74.104615 
L 163.44 40.652308 
L 118.8 40.652308 
z
" style="fill:#ffffff;stroke:#ffffff;stroke-linejoin:miter;stroke-width:2;"/>
   </g>
   <g id="patch_55">
    <path clip-path="url(#p7562d511da)" d="M 118.8 74.104615 
L 163.44 74.104615 
L 163.44 40.652308 
L 118.8 40.652308 
z
" style="fill:none;stroke:#000000;stroke-linejoin:miter;stroke-width:2;"/>
   </g>
   <g id="patch_56">
    <path clip-path="url(#p7562d511da)" d="M 163.44 74.104615 
L 208.08 74.104615 
L 208.08 40.652308 
L 163.44 40.652308 
z
" style="fill:#ffffff;stroke:#ffffff;stroke-linejoin:miter;stroke-width:2;"/>
   </g>
   <g id="patch_57">
    <path clip-path="url(#p7562d511da)" d="M 163.44 74.104615 
L 208.08 74.104615 
L 208.08 40.652308 
L 163.44 40.652308 
z
" style="fill:none;stroke:#000000;stroke-linejoin:miter;stroke-width:2;"/>
   </g>
   <g id="patch_58">
    <path clip-path="url(#p7562d511da)" d="M 208.08 74.104615 
L 252.72 74.104615 
L 252.72 40.652308 
L 208.08 40.652308 
z
" style="fill:#ffffff;stroke:#ffffff;stroke-linejoin:miter;stroke-width:2;"/>
   </g>
   <g id="patch_59">
    <path clip-path="url(#p7562d511da)" d="M 208.08 74.104615 
L 252.72 74.104615 
L 252.72 40.652308 
L 208.08 40.652308 
z
" style="fill:none;stroke:#000000;stroke-linejoin:miter;stroke-width:2;"/>
   </g>
   <g id="patch_60">
    <path clip-path="url(#p7562d511da)" d="M 252.72 74.104615 
L 297.36 74.104615 
L 297.36 40.652308 
L 252.72 40.652308 
z
" style="fill:#ffffff;stroke:#ffffff;stroke-linejoin:miter;stroke-width:2;"/>
   </g>
   <g id="patch_61">
    <path clip-path="url(#p7562d511da)" d="M 252.72 74.104615 
L 297.36 74.104615 
L 297.36 40.652308 
L 252.72 40.652308 
z
" style="fill:none;stroke:#000000;stroke-linejoin:miter;stroke-width:2;"/>
   </g>
   <g id="patch_62">
    <path clip-path="url(#p7562d511da)" d="M 208.08 107.556923 
L 252.72 107.556923 
L 252.72 74.104615 
L 208.08 74.104615 
z
" style="fill:#2020a0;stroke:#2020a0;stroke-linejoin:miter;stroke-width:2;"/>
   </g>
   <g id="patch_63">
    <path clip-path="url(#p7562d511da)" d="M 252.72 74.104615 
L 297.36 74.104615 
L 297.36 40.652308 
L 252.72 40.652308 
z
" style="fill:none;stroke:#000000;stroke-linejoin:miter;stroke-width:2;"/>
   </g>
   <g id="patch_64">
    <path clip-path="url(#p7562d511da)" d="M 118.8 174.461538 
L 163.44 174.461538 
L 163.44 141.009231 
L 118.8 141.009231 
z
" style="fill:#2020a0;stroke:#2020a0;stroke-linejoin:miter;stroke-width:2;"/>
   </g>
   <g id="patch_65">
    <path clip-path="url(#p7562d511da)" d="M 252.72 74.104615 
L 297.36 74.104615 
L 297.36 40.652308 
L 252.72 40.652308 
z
" style="fill:none;stroke:#000000;stroke-linejoin:miter;stroke-width:2;"/>
   </g>
   <g id="patch_66">
    <path clip-path="url(#p7562d511da)" d="M 163.44 107.556923 
L 208.08 107.556923 
L 208.08 74.104615 
L 163.44 74.104615 
z
" style="fill:#2020a0;stroke:#2020a0;stroke-linejoin:miter;stroke-width:2;"/>
   </g>
   <g id="patch_67">
    <path clip-path="url(#p7562d511da)" d="M 252.72 74.104615 
L 297.36 74.104615 
L 297.36 40.652308 
L 252.72 40.652308 
z
" style="fill:none;stroke:#000000;stroke-linejoin:miter;stroke-width:2;"/>
   </g>
   <g id="patch_68">
    <path clip-path="url(#p7562d511da)" d="M 29.52 74.104615 
L 74.16 74.104615 
L 74.16 40.652308 
L 29.52 40.652308 
z
" style="fill:#2020a0;stroke:#2020a0;stroke-linejoin:miter;stroke-width:2;"/>
   </g>
   <g id="patch_69">
    <path clip-path="url(#p7562d511da)" d="M 252.72 74.104615 
L 297.36 74.104615 
L 297.36 40.652308 
L 252.72 40.652308 
z
" style="fill:none;stroke:#000000;stroke-linejoin:miter;stroke-width:2;"/>
   </g>
   <g id="patch_70">
    <path clip-path="url(#p7562d511da)" d="M 74.16 174.461538 
L 118.8 174.461538 
L 118.8 141.009231 
L 74.16 141.009231 
z
" style="fill:#2020a0;stroke:#2020a0;stroke-linejoin:miter;stroke-width:2;"/>
   </g>
   <g id="patch_71">
    <path clip-path="url(#p7562d511da)" d="M 252.72 74.104615 
L 297.36 74.104615 
L 297.36 40.652308 
L 252.72 40.652308 
z
" style="fill:none;stroke:#000000;stroke-linejoin:miter;stroke-width:2;"/>
   </g>
   <g id="patch_72">
    <path clip-path="url(#p7562d511da)" d="M 74.16 141.009231 
L 118.8 141.009231 
L 118.8 107.556923 
L 74.16 107.556923 
z
" style="fill:#2020a0;stroke:#2020a0;stroke-linejoin:miter;stroke-width:2;"/>
   </g>
   <g id="patch_73">
    <path clip-path="url(#p7562d511da)" d="M 252.72 74.104615 
L 297.36 74.104615 
L 297.36 40.652308 
L 252.72 40.652308 
z
" style="fill:none;stroke:#000000;stroke-linejoin:miter;stroke-width:2;"/>
   </g>
   <g id="patch_74">
    <path clip-path="url(#p7562d511da)" d="M 252.72 74.104615 
L 297.36 74.104615 
L 297.36 40.652308 
L 252.72 40.652308 
z
" style="fill:#c02020;stroke:#c02020;stroke-linejoin:miter;stroke-width:2;"/>
   </g>
   <g id="patch_75">
    <path clip-path="url(#p7562d511da)" d="M 252.72 74.104615 
L 297.36 74.104615 
L 297.36 40.652308 
L 252.72 40.652308 
z
" style="fill:none;stroke:#000000;stroke-linejoin:miter;stroke-width:2;"/>
   </g>
   <g id="text_1">
    <!-- A -->
    <defs>
     <path d="M 34.1875 63.1875 
L 20.796875 26.90625 
L 47.609375 26.90625 
z
M 28.609375 72.90625 
L 39.796875 72.90625 
L 67.578125 0 
L 57.328125 0 
L 50.6875 18.703125 
L 17.828125 18.703125 
L 11.1875 0 
L 0.78125 0 
z
" id="DejaVuSans-65"/>
    </defs>
    <g transform="translate(7.2 197.878154)scale(0.12 -0.12)">
     <use xlink:href="#DejaVuSans-65"/>
    </g>
   </g>
   <g id="text_2">
    <!-- B -->
    <defs>
     <path d="M 19.671875 34.8125 
L 19.671875 8.109375 
L 35.5 8.109375 
Q 43.453125 8.109375 47.28125 11.40625 
Q 51.125 14.703125 51.125 21.484375 
Q 51.125 28.328125 47.28125 31.5625 
Q 43.453125 34.8125 35.5 34.8125 
z
M 19.671875 64.796875 
L 19.671875 42.828125 
L 34.28125 42.828125 
Q 41.5 42.828125 45.03125 45.53125 
Q 48.578125 48.25 48.578125 53.8125 
Q 48.578125 59.328125 45.03125 62.0625 
Q 41.5 64.796875 34.28125 64.796875 
z
M 9.8125 72.90625 
L 35.015625 72.90625 
Q 46.296875 72.90625 52.390625 68.21875 
Q 58.5 63.53125 58.5 54.890625 
Q 58.5 48.1875 55.375 44.234375 
Q 52.25 40.28125 46.1875 39.3125 
Q 53.46875 37.75 57.5 32.78125 
Q 61.53125 27.828125 61.53125 20.40625 
Q 61.53125 10.640625 54.890625 5.3125 
Q 48.25 0 35.984375 0 
L 9.8125 0 
z
" id="DejaVuSans-66"/>
    </defs>
    <g transform="translate(7.2 164.425846)scale(0.12 -0.12)">
     <use xlink:href="#DejaVuSans-66"/>
    </g>
   </g>
   <g id="text_3">
    <!-- C -->
    <defs>
     <path d="M 64.40625 67.28125 
L 64.40625 56.890625 
Q 59.421875 61.53125 53.78125 63.8125 
Q 48.140625 66.109375 41.796875 66.109375 
Q 29.296875 66.109375 22.65625 58.46875 
Q 16.015625 50.828125 16.015625 36.375 
Q 16.015625 21.96875 22.65625 14.328125 
Q 29.296875 6.6875 41.796875 6.6875 
Q 48.140625 6.6875 53.78125 8.984375 
Q 59.421875 11.28125 64.40625 15.921875 
L 64.40625 5.609375 
Q 59.234375 2.09375 53.4375 0.328125 
Q 47.65625 -1.421875 41.21875 -1.421875 
Q 24.65625 -1.421875 15.125 8.703125 
Q 5.609375 18.84375 5.609375 36.375 
Q 5.609375 53.953125 15.125 64.078125 
Q 24.65625 74.21875 41.21875 74.21875 
Q 47.75 74.21875 53.53125 72.484375 
Q 59.328125 70.75 64.40625 67.28125 
z
" id="DejaVuSans-67"/>
    </defs>
    <g transform="translate(7.2 130.973538)scale(0.12 -0.12)">
     <use xlink:href="#DejaVuSans-67"/>
    </g>
   </g>
   <g id="text_4">
    <!-- D -->
    <defs>
     <path d="M 19.671875 64.796875 
L 19.671875 8.109375 
L 31.59375 8.109375 
Q 46.6875 8.109375 53.6875 14.9375 
Q 60.6875 21.78125 60.6875 36.53125 
Q 60.6875 51.171875 53.6875 57.984375 
Q 46.6875 64.796875 31.59375 64.796875 
z
M 9.8125 72.90625 
L 30.078125 72.90625 
Q 51.265625 72.90625 61.171875 64.09375 
Q 71.09375 55.28125 71.09375 36.53125 
Q 71.09375 17.671875 61.125 8.828125 
Q 51.171875 0 30.078125 0 
L 9.8125 0 
z
" id="DejaVuSans-68"/>
    </defs>
    <g transform="translate(7.2 97.521231)scale(0.12 -0.12)">
     <use xlink:href="#DejaVuSans-68"/>
    </g>
   </g>
   <g id="text_5">
    <!-- E -->
    <defs>
     <path d="M 9.8125 72.90625 
L 55.90625 72.90625 
L 55.90625 64.59375 
L 19.671875 64.59375 
L 19.671875 43.015625 
L 54.390625 43.015625 
L 54.390625 34.71875 
L 19.671875 34.71875 
L 19.671875 8.296875 
L 56.78125 8.296875 
L 56.78125 0 
L 9.8125 0 
z
" id="DejaVuSans-69"/>
    </defs>
    <g transform="translate(7.2 64.068923)scale(0.12 -0.12)">
     <use xlink:href="#DejaVuSans-69"/>
    </g>
   </g>
   <g id="text_6">
    <!-- 0 -->
    <defs>
     <path d="M 31.78125 66.40625 
Q 24.171875 66.40625 20.328125 58.90625 
Q 16.5 51.421875 16.5 36.375 
Q 16.5 21.390625 20.328125 13.890625 
Q 24.171875 6.390625 31.78125 6.390625 
Q 39.453125 6.390625 43.28125 13.890625 
Q 47.125 21.390625 47.125 36.375 
Q 47.125 51.421875 43.28125 58.90625 
Q 39.453125 66.40625 31.78125 66.40625 
z
M 31.78125 74.21875 
Q 44.046875 74.21875 50.515625 64.515625 
Q 56.984375 54.828125 56.984375 36.375 
Q 56.984375 17.96875 50.515625 8.265625 
Q 44.046875 -1.421875 31.78125 -1.421875 
Q 19.53125 -1.421875 13.0625 8.265625 
Q 6.59375 17.96875 6.59375 36.375 
Q 6.59375 54.828125 13.0625 64.515625 
Q 19.53125 74.21875 31.78125 74.21875 
z
" id="DejaVuSans-48"/>
    </defs>
    <g transform="translate(47.376 30.616615)scale(0.12 -0.12)">
     <use xlink:href="#DejaVuSans-48"/>
    </g>
   </g>
   <g id="text_7">
    <!-- 1 -->
    <defs>
     <path d="M 12.40625 8.296875 
L 28.515625 8.296875 
L 28.515625 63.921875 
L 10.984375 60.40625 
L 10.984375 69.390625 
L 28.421875 72.90625 
L 38.28125 72.90625 
L 38.28125 8.296875 
L 54.390625 8.296875 
L 54.390625 0 
L 12.40625 0 
z
" id="DejaVuSans-49"/>
    </defs>
    <g transform="translate(92.016 30.616615)scale(0.12 -0.12)">
     <use xlink:href="#DejaVuSans-49"/>
    </g>
   </g>
   <g id="text_8">
    <!-- 2 -->
    <defs>
     <path d="M 19.1875 8.296875 
L 53.609375 8.296875 
L 53.609375 0 
L 7.328125 0 
L 7.328125 8.296875 
Q 12.9375 14.109375 22.625 23.890625 
Q 32.328125 33.6875 34.8125 36.53125 
Q 39.546875 41.84375 41.421875 45.53125 
Q 43.3125 49.21875 43.3125 52.78125 
Q 43.3125 58.59375 39.234375 62.25 
Q 35.15625 65.921875 28.609375 65.921875 
Q 23.96875 65.921875 18.8125 64.3125 
Q 13.671875 62.703125 7.8125 59.421875 
L 7.8125 69.390625 
Q 13.765625 71.78125 18.9375 73 
Q 24.125 74.21875 28.421875 74.21875 
Q 39.75 74.21875 46.484375 68.546875 
Q 53.21875 62.890625 53.21875 53.421875 
Q 53.21875 48.921875 51.53125 44.890625 
Q 49.859375 40.875 45.40625 35.40625 
Q 44.1875 33.984375 37.640625 27.21875 
Q 31.109375 20.453125 19.1875 8.296875 
z
" id="DejaVuSans-50"/>
    </defs>
    <g transform="translate(136.656 30.616615)scale(0.12 -0.12)">
     <use xlink:href="#DejaVuSans-50"/>
    </g>
   </g>
   <g id="text_9">
    <!-- 3 -->
    <defs>
     <path d="M 40.578125 39.3125 
Q 47.65625 37.796875 51.625 33 
Q 55.609375 28.21875 55.609375 21.1875 
Q 55.609375 10.40625 48.1875 4.484375 
Q 40.765625 -1.421875 27.09375 -1.421875 
Q 22.515625 -1.421875 17.65625 -0.515625 
Q 12.796875 0.390625 7.625 2.203125 
L 7.625 11.71875 
Q 11.71875 9.328125 16.59375 8.109375 
Q 21.484375 6.890625 26.8125 6.890625 
Q 36.078125 6.890625 40.9375 10.546875 
Q 45.796875 14.203125 45.796875 21.1875 
Q 45.796875 27.640625 41.28125 31.265625 
Q 36.765625 34.90625 28.71875 34.90625 
L 20.21875 34.90625 
L 20.21875 43.015625 
L 29.109375 43.015625 
Q 36.375 43.015625 40.234375 45.921875 
Q 44.09375 48.828125 44.09375 54.296875 
Q 44.09375 59.90625 40.109375 62.90625 
Q 36.140625 65.921875 28.71875 65.921875 
Q 24.65625 65.921875 20.015625 65.03125 
Q 15.375 64.15625 9.8125 62.3125 
L 9.8125 71.09375 
Q 15.4375 72.65625 20.34375 73.4375 
Q 25.25 74.21875 29.59375 74.21875 
Q 40.828125 74.21875 47.359375 69.109375 
Q 53.90625 64.015625 53.90625 55.328125 
Q 53.90625 49.265625 50.4375 45.09375 
Q 46.96875 40.921875 40.578125 39.3125 
z
" id="DejaVuSans-51"/>
    </defs>
    <g transform="translate(181.296 30.616615)scale(0.12 -0.12)">
     <use xlink:href="#DejaVuSans-51"/>
    </g>
   </g>
   <g id="text_10">
    <!-- 4 -->
    <defs>
     <path d="M 37.796875 64.3125 
L 12.890625 25.390625 
L 37.796875 25.390625 
z
M 35.203125 72.90625 
L 47.609375 72.90625 
L 47.609375 25.390625 
L 58.015625 25.390625 
L 58.015625 17.1875 
L 47.609375 17.1875 
L 47.609375 0 
L 37.796875 0 
L 37.796875 17.1875 
L 4.890625 17.1875 
L 4.890625 26.703125 
z
" id="DejaVuSans-52"/>
    </defs>
    <g transform="translate(225.936 30.616615)scale(0.12 -0.12)">
     <use xlink:href="#DejaVuSans-52"/>
    </g>
   </g>
   <g id="text_11">
    <!-- 5 -->
    <defs>
     <path d="M 10.796875 72.90625 
L 49.515625 72.90625 
L 49.515625 64.59375 
L 19.828125 64.59375 
L 19.828125 46.734375 
Q 21.96875 47.46875 24.109375 47.828125 
Q 26.265625 48.1875 28.421875 48.1875 
Q 40.625 48.1875 47.75 41.5 
Q 54.890625 34.8125 54.890625 23.390625 
Q 54.890625 11.625 47.5625 5.09375 
Q 40.234375 -1.421875 26.90625 -1.421875 
Q 22.3125 -1.421875 17.546875 -0.640625 
Q 12.796875 0.140625 7.71875 1.703125 
L 7.71875 11.625 
Q 12.109375 9.234375 16.796875 8.0625 
Q 21.484375 6.890625 26.703125 6.890625 
Q 35.15625 6.890625 40.078125 11.328125 
Q 45.015625 15.765625 45.015625 23.390625 
Q 45.015625 31 40.078125 35.4375 
Q 35.15625 39.890625 26.703125 39.890625 
Q 22.75 39.890625 18.8125 39.015625 
Q 14.890625 38.140625 10.796875 36.28125 
z
" id="DejaVuSans-53"/>
    </defs>
    <g transform="translate(270.576 30.616615)scale(0.12 -0.12)">
     <use xlink:href="#DejaVuSans-53"/>
    </g>
   </g>
   <g id="text_12">
    <!-- 1 -->
    <g transform="translate(261.648 67.414154)scale(0.1 -0.1)">
     <use xlink:href="#DejaVuSans-49"/>
    </g>
   </g>
  </g>
 </g>
 <defs>
  <clipPath id="p7562d511da">
   <rect height="217.44" width="334.8" x="7.2" y="7.2"/>
  </clipPath>
 </defs>
</svg>
